<?xml version="1.0" standalone="no"?>
<!DOCTYPE svg PUBLIC "-//W3C//DTD SVG 20010904//EN"
 "http://www.w3.org/TR/2001/REC-SVG-20010904/DTD/svg10.dtd">
<svg version="1.0" xmlns="http://www.w3.org/2000/svg"
 width="512.000000pt" height="512.000000pt" viewBox="0 0 512.000000 512.000000"
 preserveAspectRatio="xMidYMid meet">
<metadata>
Created by potrace 1.11, written by Peter Selinger 2001-2013
</metadata>
<g transform="translate(0.000000,512.000000) scale(0.100000,-0.100000)"
fill="#000000" stroke="none">
<path d="M0 2560 l0 -2560 2560 0 2560 0 0 2560 0 2560 -2560 0 -2560 0 0
-2560z m1582 1227 c109 -31 172 -61 192 -92 20 -31 73 -225 88 -322 14 -96 4
-123 -47 -123 -66 0 -89 21 -144 132 -86 175 -180 270 -295 299 -70 17 -219 7
-290 -21 -82 -32 -166 -114 -197 -195 -33 -86 -34 -239 -2 -308 49 -106 186
-220 493 -412 259 -162 375 -266 448 -403 44 -84 62 -164 62 -284 0 -343 -202
-595 -545 -680 -126 -31 -354 -31 -468 0 -163 45 -315 147 -335 227 -13 47
-31 231 -33 329 -2 78 10 96 66 96 42 0 58 -20 85 -110 54 -184 172 -339 302
-400 166 -77 363 -51 487 65 95 89 133 186 132 341 0 141 -34 240 -113 330
-37 42 -168 134 -333 234 -262 159 -377 250 -456 363 -69 99 -91 162 -97 283
-9 193 52 357 179 484 103 103 218 155 429 194 14 3 88 3 165 1 111 -3 158 -8
227 -28z m1966 2 c379 -41 683 -184 872 -412 76 -91 161 -261 195 -387 170
-643 -179 -1310 -803 -1534 -174 -62 -318 -78 -592 -65 -270 14 -667 16 -841
5 -160 -10 -213 -1 -225 36 -10 32 13 45 113 67 140 30 195 65 228 143 13 33
15 148 15 943 0 968 1 944 -48 998 -28 32 -104 64 -188 82 -94 19 -126 37
-122 68 6 43 32 46 398 46 190 0 388 4 440 9 139 13 446 14 558 1z"/>
<path d="M3065 3681 c-148 -12 -223 -52 -245 -130 -6 -23 -10 -362 -10 -902 0
-978 -3 -936 74 -1014 78 -77 226 -116 451 -116 209 -1 350 36 512 133 73 44
203 166 258 243 235 329 272 865 85 1229 -140 273 -371 459 -659 532 -109 28
-298 38 -466 25z"/>
</g>
</svg>
